<?xml version="1.0" encoding="UTF-8"?>
<!DOCTYPE svg PUBLIC "-//W3C//DTD SVG 1.1//EN" "http://www.w3.org/Graphics/SVG/1.1/DTD/svg11.dtd">
<!-- Creator: CorelDRAW X7 -->
<svg xmlns="http://www.w3.org/2000/svg" xml:space="preserve" width="164px" height="23px" version="1.1" style="shape-rendering:geometricPrecision; text-rendering:geometricPrecision; image-rendering:optimizeQuality; fill-rule:evenodd; clip-rule:evenodd"
viewBox="0 0 4369248 622153"
 xmlns:xlink="http://www.w3.org/1999/xlink">
 <defs>
  <style type="text/css">
   <![CDATA[
    .fil0 {fill:#FEFEFE;fill-rule:nonzero}
   ]]>
  </style>
 </defs>
 <g id="Capa_x0020_1">
  <metadata id="CorelCorpID_0Corel-Layer"/>
  <g id="_1040775584">
   <path class="fil0" d="M0 622130l224886 -622107 158544 0 216274 622107 -134416 0 -44808 -131830 -246428 0 -46532 131830 -127520 0zm386870 -235230l0 0 -85298 -265384 -1724 0 -91332 265384 178354 0z"/>
   <path class="fil0" d="M654182 23l211972 0c193862,-1724 314494,94780 314494,311053 0,216267 -120632,312771 -314494,311054l-211972 0 0 -622107zm133562 518715l0 0 68928 0c158536,1716 181810,-108572 181810,-207662 0,-99082 -23274,-209370 -181810,-207654l-68928 0 0 415316z"/>
   <path class="fil0" d="M1184648 622130l224886 -622107 158544 0 216258 622107 -134408 0 -44808 -131830 -246420 0 -46532 131830 -127520 0zm386878 -235230l0 0 -85306 -265384 -1724 0 -91332 265384 178362 0z"/>
   <polygon class="fil0" points="2239310,622130 2128168,622130 1963590,87914 1961866,89638 1961866,622130 1836925,622130 1836925,23 2055792,23 2185898,452388 2187614,452388 2328926,23 2540028,23 2540028,622130 2415094,622130 2415094,89638 2413370,87914 "/>
   <path class="fil0" d="M2596170 622130l224886 -622107 158544 0 216266 622107 -134408 0 -44808 -131830 -246428 0 -46524 131830 -127528 0zm386878 -235230l0 0 -85298 -265384 -1732 0 -91332 265384 178362 0z"/>
   <polygon class="fil0" points="3623015,622130 3377449,105146 3375733,106870 3375733,622130 3250791,622130 3250791,23 3448978,23 3685924,489431 3687648,487714 3687648,23 3812590,23 3812590,622130 "/>
   <polygon class="fil0" points="3865194,23 4369248,23 4369248,103422 4183998,103422 4183998,622130 4050444,622130 4050444,103422 3865194,103422 "/>
  </g>
 </g>
</svg>
