<?xml version="1.0" standalone="no"?>
<!DOCTYPE svg PUBLIC "-//W3C//DTD SVG 20010904//EN"
 "http://www.w3.org/TR/2001/REC-SVG-20010904/DTD/svg10.dtd">
<svg version="1.0" xmlns="http://www.w3.org/2000/svg"
 width="1151.000000pt" height="1151.000000pt" viewBox="0 0 1151.000000 1151.000000"
 preserveAspectRatio="xMidYMid meet">
<metadata>
Created by potrace 1.11, written by Peter Selinger 2001-2013
</metadata>
<g transform="translate(0.000000,1151.000000) scale(0.100000,-0.100000)"
fill="#000000" stroke="none">
<path d="M8239 9526 c-2 -3 -56 -7 -119 -11 -124 -7 -156 -15 -69 -16 30 0 61
-2 69 -3 8 -2 60 -6 115 -10 55 -4 116 -9 135 -11 19 -3 60 -7 90 -10 47 -5
99 -12 220 -30 70 -10 165 -27 255 -45 925 -192 1480 -610 1644 -1235 64 -241
73 -502 26 -735 -79 -397 -367 -887 -810 -1385 -128 -144 -448 -460 -586 -579
-19 -16 -65 -57 -104 -91 -137 -120 -442 -360 -609 -480 -15 -11 -47 -34 -70
-51 -82 -62 -365 -250 -536 -357 -438 -275 -961 -552 -1400 -742 -85 -37 -174
-75 -197 -86 -24 -10 -46 -19 -49 -19 -3 0 -20 -7 -37 -15 -196 -90 -978 -348
-1215 -400 -26 -6 -36 -8 -127 -30 -38 -9 -90 -20 -115 -25 -25 -5 -56 -12
-70 -15 -56 -11 -127 -25 -155 -30 -16 -3 -40 -7 -51 -9 -12 -2 -39 -7 -60
-11 -22 -3 -50 -8 -64 -10 -67 -11 -161 -25 -215 -31 -33 -3 -67 -8 -76 -9 -8
-2 -53 -6 -100 -10 -46 -4 -92 -9 -101 -10 -81 -16 -547 -22 -743 -10 -66 4
-127 7 -135 7 -8 0 -69 7 -135 15 -66 8 -136 16 -155 19 -19 2 -46 6 -60 9
-14 2 -41 7 -60 10 -182 28 -589 139 -705 191 -16 7 -66 27 -110 44 -275 108
-657 338 -775 468 -293 320 -399 727 -315 1217 2 11 10 52 19 90 92 395 287
794 577 1181 45 60 85 111 88 114 3 3 35 39 71 80 36 41 110 120 165 175 55
54 89 90 75 78 -14 -11 -36 -29 -49 -39 -170 -134 -489 -484 -646 -709 -22
-31 -45 -62 -51 -68 -23 -26 -185 -278 -241 -377 -131 -229 -239 -467 -312
-689 -23 -68 -43 -133 -45 -145 -3 -11 -12 -55 -21 -96 -23 -105 -22 -97 -41
-230 -10 -72 -12 -308 -2 -395 48 -434 286 -798 695 -1062 46 -29 85 -53 87
-53 2 0 35 -17 73 -39 272 -154 795 -312 1225 -371 46 -7 85 -13 88 -15 3 -1
36 -6 73 -10 37 -3 76 -8 85 -10 9 -1 55 -6 102 -10 47 -4 92 -8 100 -10 135
-26 836 -26 970 0 8 2 49 6 90 9 41 4 86 9 100 11 14 2 45 7 70 10 25 4 56 8
70 10 14 2 45 7 70 10 25 3 81 12 125 20 44 8 98 17 120 21 22 3 56 9 75 14
19 5 53 11 75 15 22 3 47 7 55 10 8 2 27 6 41 9 46 8 330 75 469 111 74 20
142 37 150 39 226 58 719 219 1045 341 440 165 833 339 1260 556 231 117 249
127 460 244 371 206 837 512 1195 784 463 353 963 828 1250 1191 19 24 47 58
61 75 14 16 45 57 70 90 24 33 47 62 50 65 7 5 227 334 258 385 65 108 90 153
160 288 204 395 254 579 255 932 1 172 -11 282 -48 430 -13 53 -28 104 -36
120 -5 11 -21 49 -35 85 -159 402 -545 756 -1068 979 -193 81 -503 173 -712
210 -33 6 -71 13 -85 16 -13 3 -42 7 -65 10 -22 3 -51 8 -65 10 -30 6 -81 11
-175 20 -38 4 -81 9 -95 12 -29 6 -695 14 -701 9z"/>
<path d="M8152 9268 c3 -8 26 -83 49 -167 24 -85 49 -155 54 -156 6 -2 57 -13
115 -25 58 -12 128 -28 155 -36 28 -7 86 -22 130 -34 131 -34 372 -119 487
-170 489 -217 750 -500 833 -900 25 -119 26 -388 1 -515 -2 -11 -11 -58 -20
-105 -9 -47 -21 -101 -26 -120 -6 -19 -13 -46 -16 -60 -12 -59 -117 -357 -174
-493 -34 -82 -60 -151 -56 -154 10 -11 92 46 141 99 211 222 401 617 455 943
113 676 -183 1205 -865 1547 -49 25 -130 62 -178 82 -84 35 -338 123 -375 131
-9 2 -69 16 -132 33 -112 29 -235 57 -295 67 -16 3 -41 7 -55 10 -14 3 -38 7
-55 10 -16 3 -43 7 -60 10 -103 18 -118 18 -113 3z"/>
<path d="M3060 8450 l0 -617 138 0 c132 -1 368 -5 927 -19 143 -4 309 -7 369
-7 l108 -1 -5 -1701 c-4 -935 -9 -1773 -12 -1862 l-5 -161 804 -1 804 0 -4 87
c-10 209 -21 2846 -14 3593 l0 45 73 1 c39 0 185 4 322 7 390 10 857 18 1001
19 l132 0 -2 616 -1 616 -2317 1 -2318 1 0 -617z"/>
<path d="M2810 7519 c-25 -23 -101 -91 -170 -152 -69 -61 -129 -115 -135 -121
-5 -6 -30 -29 -55 -50 -257 -223 -521 -488 -751 -750 -50 -58 -175 -215 -215
-272 -172 -243 -282 -432 -360 -620 -56 -135 -106 -300 -118 -389 -3 -22 -10
-69 -15 -105 -9 -66 -7 -284 3 -330 3 -14 9 -41 12 -60 44 -260 224 -549 476
-762 64 -55 234 -178 244 -178 3 0 18 -8 32 -19 46 -32 212 -117 322 -164 176
-75 327 -126 525 -176 133 -33 132 -33 295 -61 114 -19 139 -22 295 -37 102
-10 421 -9 500 1 145 18 168 25 89 27 -27 1 -58 3 -69 4 -11 1 -54 5 -95 8
-90 8 -205 23 -320 43 -47 9 -98 18 -115 20 -33 6 -230 49 -285 63 -557 144
-969 382 -1186 687 -171 239 -218 506 -169 939 10 86 67 304 108 410 124 324
317 632 606 970 133 156 158 182 464 487 l288 288 -72 162 c-40 90 -75 166
-78 170 -4 4 -27 -11 -51 -33z"/>
</g>
</svg>
